<?xml version="1.0" encoding="UTF-8"?>
<svg width="263px" height="284px" viewBox="0 0 263 284" version="1.1" xmlns="http://www.w3.org/2000/svg" xmlns:xlink="http://www.w3.org/1999/xlink">
    <!-- Generator: Sketch 52.5 (67469) - http://www.bohemiancoding.com/sketch -->
    <title>logo</title>
    <desc>Created with Sketch.</desc>
    <defs>
        <ellipse id="path-1" cx="148.902105" cy="90.090882" rx="148.052097" ry="89.7285435"></ellipse>
        <linearGradient x1="50%" y1="0%" x2="50%" y2="100%" id="linearGradient-3">
            <stop stop-color="#FFFFFF" stop-opacity="0.0776721014" offset="0%"></stop>
            <stop stop-color="#FFFFFF" stop-opacity="0.2" offset="100%"></stop>
        </linearGradient>
        <ellipse id="path-4" cx="148.902105" cy="90.090882" rx="148.052097" ry="89.7285435"></ellipse>
    </defs>
    <g id="Page-1" stroke="none" stroke-width="1" fill="none" fill-rule="evenodd">
        <g id="Artboard" transform="translate(-418.000000, -361.000000)">
            <g id="logo" transform="translate(366.000000, 312.000000)">
                <ellipse id="Mask" fill="#F8F8F8" transform="translate(183.500000, 190.845872) rotate(-50.000000) translate(-183.500000, -190.845872) " cx="183.5" cy="190.845872" rx="165" ry="100"></ellipse>
                <g id="Group-2" transform="translate(19.000000, 19.000000)">
                    <g id="Mask" transform="translate(164.574017, 172.340494) rotate(-50.000000) translate(-164.574017, -172.340494) translate(16.074017, 82.340494)" fill="#26282A">
                        <ellipse id="path-1" cx="148.902105" cy="90.090882" rx="148.052097" ry="89.7285435"></ellipse>
                    </g>
                    <g id="Group-3-Clipped" transform="translate(164.500000, 172.000000) rotate(-50.000000) translate(-164.500000, -172.000000) translate(16.000000, 82.000000)">
                        <g>
                            <mask id="mask-2" fill="white">
                                <use xlink:href="#path-1"></use>
                            </mask>
                            <g id="path-1"></g>
                            <g id="Group-3" opacity="0.799665179" mask="url(#mask-2)">
                                <g transform="translate(-3.000000, -54.000000)" id="Rectangle-5">
                                    <g transform="translate(0.000000, 0.000000)">
                                        <g id="Group" transform="translate(0.000000, 0.000000)" fill="url(#linearGradient-3)">
                                            <polygon id="Path" points="142 4 175 4 152 144"></polygon>
                                            <polygon id="Path" transform="translate(225.561734, 147.673554) rotate(88.000000) translate(-225.561734, -147.673554) " points="209.061734 72.6735536 242.061734 72.6735536 219.061734 222.673554"></polygon>
                                            <polygon id="Path" transform="translate(76.045688, 140.117462) rotate(-92.000000) translate(-76.045688, -140.117462) " points="59.545688 65.1174623 92.545688 65.1174623 69.545688 215.117462"></polygon>
                                            <polygon id="Path" transform="translate(107.164737, 90.164737) rotate(-45.000000) translate(-107.164737, -90.164737) " points="90.6647365 20.164737 123.664737 20.164737 100.664737 160.164737"></polygon>
                                            <polygon id="Path" transform="translate(196.164737, 197.164737) rotate(135.000000) translate(-196.164737, -197.164737) " points="179.664737 127.164737 212.664737 127.164737 189.664737 267.164737"></polygon>
                                            <polygon id="Path" transform="translate(169.446338, 209.421816) rotate(160.000000) translate(-169.446338, -209.421816) " points="152.946338 139.421816 185.946338 139.421816 162.946338 279.421816"></polygon>
                                            <polygon id="Path" transform="translate(213.421816, 172.446338) rotate(110.000000) translate(-213.421816, -172.446338) " points="196.921816 102.446338 229.921816 102.446338 206.921816 242.446338"></polygon>
                                            <polygon id="Path" transform="translate(91.414746, 114.537357) rotate(-70.000000) translate(-91.414746, -114.537357) " points="74.914746 44.5373567 107.914746 44.5373567 84.914746 184.537357"></polygon>
                                            <polygon id="Path" transform="translate(134.537357, 78.414746) rotate(-20.000000) translate(-134.537357, -78.414746) " points="118.037357 8.41474639 151.037357 8.41474639 128.037357 148.414746"></polygon>
                                            <polygon id="Path" transform="translate(209.164737, 95.164737) rotate(45.000000) translate(-209.164737, -95.164737) " points="192.664737 18.0936691 225.664737 18.0936691 202.664737 172.235804"></polygon>
                                            <polygon id="Path" transform="translate(224.917493, 119.983294) rotate(67.000000) translate(-224.917493, -119.983294) " points="208.417493 42.9122266 241.417493 42.9122266 218.417493 197.054362"></polygon>
                                            <polygon id="Path" transform="translate(189.525719, 76.823310) rotate(25.000000) translate(-189.525719, -76.823310) " points="173.025719 -0.247757619 206.025719 -0.247757619 183.025719 153.894378"></polygon>
                                            <polygon id="Path" transform="translate(95.164737, 192.164737) rotate(-135.000000) translate(-95.164737, -192.164737) " points="78.6647373 115.093669 111.664738 115.093669 88.6647373 269.235804"></polygon>
                                            <polygon id="Path" transform="translate(114.525719, 209.823310) rotate(-155.000000) translate(-114.525719, -209.823310) " points="98.025719 132.752242 131.025719 132.752242 108.025719 286.894378"></polygon>
                                            <polygon id="Path" transform="translate(80.729127, 167.068144) rotate(-113.000000) translate(-80.729127, -167.068144) " points="64.2291268 89.9970755 97.2291268 89.9970755 74.2291268 244.139212"></polygon>
                                            <polygon id="Path" transform="translate(145.500000, 214.000000) rotate(-180.000000) translate(-145.500000, -214.000000) " points="129 144 162 144 139 284"></polygon>
                                        </g>
                                    </g>
                                </g>
                            </g>
                        </g>
                    </g>
                    <g id="UNO-Clipped" transform="translate(16.000000, 82.000000)">
                        <g>
                            <mask id="mask-5" fill="white">
                                <use xlink:href="#path-4"></use>
                            </mask>
                            <g id="path-4"></g>
                            <g id="UNO" mask="url(#mask-5)">
                                <g transform="translate(32.000000, 16.000000)" id="path-4-link">
                                    <g transform="translate(117.949876, 74.003581) rotate(-20.000000) translate(-117.949876, -74.003581) translate(6.949876, 36.003581)">
                                        <g id="Group" fill="#FFFFFF" fill-rule="nonzero">
                                            <path d="M31.7350915,61.218924 C34.0017695,61.218924 36.0267493,60.843928 37.8100915,60.093924 C39.5934338,59.34392 41.101752,58.268931 42.3350915,56.868924 C43.568431,55.468917 44.5100883,53.760601 45.1600915,51.743924 C45.8100948,49.727247 46.135092,47.435604 46.135092,44.868924 L46.135092,1.718924 L63.035092,1.718924 L63.035092,44.868924 C63.035092,49.335613 62.310099,53.435572 60.860092,57.168924 C59.410084,60.902276 57.335105,64.118911 54.635092,66.818924 C51.935078,69.518938 48.651778,71.618917 44.7850915,73.118924 C40.9184055,74.618932 36.568449,75.368924 31.7350915,75.368924 C26.8684005,75.368924 22.5017775,74.618932 18.6350915,73.118924 C14.7684055,71.618917 11.485105,69.518938 8.7850915,66.818924 C6.085078,64.118911 4.018432,60.902276 2.5850915,57.168924 C1.151751,53.435572 0.4350915,49.335613 0.4350915,44.868924 L0.4350915,1.718924 L17.3350915,1.718924 L17.3350915,44.818924 C17.3350915,47.385604 17.6600883,49.677247 18.3100915,51.693924 C18.9600948,53.710601 19.901752,55.42725 21.1350915,56.843924 C22.368431,58.260598 23.8767493,59.34392 25.6600915,60.093924 C27.4434338,60.843928 29.4684135,61.218924 31.7350915,61.218924 Z M82.935092,1.718924 C83.668429,1.718924 84.285089,1.752257 84.785092,1.818924 C85.285094,1.885591 85.73509,2.01059 86.135092,2.193924 C86.535094,2.377258 86.918423,2.635589 87.285092,2.968924 C87.65176,3.302259 88.068423,3.752255 88.535092,4.318924 L123.135092,48.068924 C123.001758,46.668917 122.901759,45.310597 122.835092,43.993924 C122.768425,42.677251 122.735092,41.435597 122.735092,40.268924 L122.735092,1.718924 L137.635092,1.718924 L137.635092,74.568924 L128.835092,74.568924 C127.535085,74.568924 126.435096,74.368926 125.535092,73.968924 C124.635087,73.568922 123.768429,72.835596 122.935092,71.768924 L88.585092,28.368924 C88.685092,29.635597 88.768425,30.877251 88.835092,32.093924 C88.901759,33.310597 88.935092,34.452252 88.935092,35.518924 L88.935092,74.568924 L74.035092,74.568924 L74.035092,1.718924 L82.935092,1.718924 Z M221.535092,38.118924 C221.535092,43.385617 220.626767,48.285568 218.810092,52.818924 C216.993416,57.35228 214.435108,61.293907 211.135092,64.643924 C207.835075,67.993941 203.860115,70.618915 199.210092,72.518924 C194.560068,74.418934 189.401787,75.368924 183.735092,75.368924 C178.068397,75.368924 172.901782,74.418934 168.235092,72.518924 C163.568402,70.618915 159.576775,67.993941 156.260092,64.643924 C152.943408,61.293907 150.376767,57.35228 148.560092,52.818924 C146.743416,48.285568 145.835092,43.385617 145.835092,38.118924 C145.835092,32.852231 146.743416,27.95228 148.560092,23.418924 C150.376767,18.885568 152.943408,14.952274 156.260092,11.618924 C159.576775,8.285574 163.568402,5.668934 168.235092,3.768924 C172.901782,1.868915 178.068397,0.918924 183.735092,0.918924 C189.401787,0.918924 194.560068,1.877248 199.210092,3.793924 C203.860115,5.7106 207.835075,8.335574 211.135092,11.668924 C214.435108,15.002274 216.993416,18.935568 218.810092,23.468924 C220.626767,28.00228 221.535092,32.885565 221.535092,38.118924 Z M204.235092,38.118924 C204.235092,34.518906 203.76843,31.277272 202.835092,28.393924 C201.901754,25.510576 200.5601,23.068934 198.810092,21.068924 C197.060083,19.068914 194.918438,17.535596 192.385092,16.468924 C189.851746,15.402252 186.968441,14.868924 183.735092,14.868924 C180.468409,14.868924 177.560104,15.402252 175.010092,16.468924 C172.460079,17.535596 170.3101,19.068914 168.560092,21.068924 C166.810083,23.068934 165.46843,25.510576 164.535092,28.393924 C163.601754,31.277272 163.135092,34.518906 163.135092,38.118924 C163.135092,41.752276 163.601754,45.010576 164.535092,47.893924 C165.46843,50.777272 166.810083,53.218914 168.560092,55.218924 C170.3101,57.218934 172.460079,58.743919 175.010092,59.793924 C177.560104,60.843929 180.468409,61.368924 183.735092,61.368924 C186.968441,61.368924 189.851746,60.843929 192.385092,59.793924 C194.918438,58.743919 197.060083,57.218934 198.810092,55.218924 C200.5601,53.218914 201.901754,50.777272 202.835092,47.893924 C203.76843,45.010576 204.235092,41.752276 204.235092,38.118924 Z" id="path-4"></path>
                                        </g>
                                    </g>
                                </g>
                            </g>
                        </g>
                    </g>
                </g>
            </g>
        </g>
    </g>
</svg>