<?xml version="1.0" encoding="UTF-8"?>
<svg width="50px" height="39px" viewBox="0 0 50 39" version="1.1" xmlns="http://www.w3.org/2000/svg" xmlns:xlink="http://www.w3.org/1999/xlink">
    <!-- Generator: Sketch 55 (78076) - https://sketchapp.com -->
    <title>Path</title>
    <desc>Created with Sketch.</desc>
    <g id="Page-1" stroke="none" stroke-width="1" fill="none" fill-rule="evenodd">
        <g id="Artboard" transform="translate(-621.000000, -349.000000)" fill="#FFFFFF" fill-rule="nonzero">
            <g id="Group-12" transform="translate(470.000000, 190.000000)">
                <g id="Group-2" transform="translate(86.000000, 86.000000)">
                    <g id="correct-symbol" transform="translate(65.000000, 73.000000)">
                        <path d="M49.0450339,5.36106095 L44.6626411,0.978668172 C44.0617381,0.37731377 43.3309255,0.076523702 42.4718962,0.076523702 C41.6120767,0.076523702 40.8812641,0.37731377 40.2803612,0.978668172 L19.1410835,22.1498871 L9.66715576,12.6436795 C9.06557562,12.0420993 8.33521445,11.7416479 7.4761851,11.7416479 C6.61659142,11.7416479 5.88623025,12.0420993 5.28465011,12.6436795 L0.902257336,17.0261851 C0.300677201,17.6276524 0,18.3582393 0,19.2177201 C0,20.0765237 0.300677201,20.8077878 0.902257336,21.4091422 L12.5671558,33.0738149 L16.9498871,37.4562077 C17.5511287,38.0580135 18.2817156,38.358465 19.1410835,38.358465 C20.0001129,38.358465 20.7306998,38.0572235 21.3322799,37.4562077 L25.7148984,33.0738149 L49.0450339,9.74379233 C49.6460497,9.14221219 49.9472912,8.41173815 49.9472912,7.55225734 C49.9477427,6.69322799 49.6460497,5.96264108 49.0450339,5.36106095 Z" id="Path"></path>
                    </g>
                </g>
            </g>
        </g>
    </g>
</svg>