<?xml version="1.0" encoding="UTF-8"?>
<svg width="236px" height="255px" viewBox="0 0 236 255" version="1.1" xmlns="http://www.w3.org/2000/svg" xmlns:xlink="http://www.w3.org/1999/xlink">
    <!-- Generator: Sketch 52.5 (67469) - http://www.bohemiancoding.com/sketch -->
    <title>Group-3 Clipped</title>
    <desc>Created with Sketch.</desc>
    <defs>
        <ellipse id="path-1" cx="148.902105" cy="90.090882" rx="148.052097" ry="89.7285435"></ellipse>
        <linearGradient x1="50%" y1="0%" x2="50%" y2="100%" id="linearGradient-3">
            <stop stop-color="#FFFFFF" stop-opacity="0.0776721014" offset="0%"></stop>
            <stop stop-color="#FFFFFF" stop-opacity="0.2" offset="100%"></stop>
        </linearGradient>
    </defs>
    <g id="Page-1" stroke="none" stroke-width="1" fill="none" fill-rule="evenodd">
        <g id="Artboard" transform="translate(-80.000000, -310.000000)">
            <g id="Group-3-Clipped" transform="translate(197.500000, 438.000000) rotate(-50.000000) translate(-197.500000, -438.000000) translate(49.000000, 348.000000)">
                <mask id="mask-2" fill="white">
                    <use xlink:href="#path-1"></use>
                </mask>
                <g id="path-3"></g>
                <g id="Group-3" opacity="0.799665179" mask="url(#mask-2)">
                    <g transform="translate(2.000000, -54.000000)" id="Rectangle-5">
                        <g transform="translate(0.000000, -0.000000)">
                            <polygon id="Path" fill="url(#linearGradient-3)" points="137 4 170 4 147 144"></polygon>
                            <polygon id="Path" fill="url(#linearGradient-3)" transform="translate(215.607422, 150.291016) rotate(90.000000) translate(-215.607422, -150.291016) " points="199.107422 80.2910158 232.107422 80.2910158 209.107422 220.291016"></polygon>
                            <polygon id="Path" fill="url(#linearGradient-3)" transform="translate(76.000000, 137.500000) rotate(-90.000000) translate(-76.000000, -137.500000) " points="59.5 67.5 92.5 67.5 69.5 207.5"></polygon>
                            <polygon id="Path" fill="url(#linearGradient-3)" transform="translate(102.164737, 90.164737) rotate(-45.000000) translate(-102.164737, -90.164737) " points="85.6647365 20.1647368 118.664737 20.1647368 95.6647365 160.164737"></polygon>
                            <polygon id="Path" fill="url(#linearGradient-3)" transform="translate(191.164737, 197.164737) rotate(135.000000) translate(-191.164737, -197.164737) " points="174.664737 127.164737 207.664737 127.164737 184.664737 267.164737"></polygon>
                            <polygon id="Path" fill="url(#linearGradient-3)" transform="translate(164.446338, 209.421816) rotate(160.000000) translate(-164.446338, -209.421816) " points="147.946338 139.421816 180.946338 139.421816 157.946338 279.421816"></polygon>
                            <polygon id="Path" fill="url(#linearGradient-3)" transform="translate(208.421816, 172.446338) rotate(110.000000) translate(-208.421816, -172.446338) " points="191.921816 102.446338 224.921816 102.446338 201.921816 242.446338"></polygon>
                            <polygon id="Path" fill="url(#linearGradient-3)" transform="translate(86.414746, 114.537357) rotate(-70.000000) translate(-86.414746, -114.537357) " points="69.9147462 44.5373567 102.914746 44.5373567 79.9147462 184.537357"></polygon>
                            <polygon id="Path" fill="url(#linearGradient-3)" transform="translate(129.537357, 78.414746) rotate(-20.000000) translate(-129.537357, -78.414746) " points="113.037357 8.4147464 146.037357 8.4147464 123.037357 148.414746"></polygon>
                            <polygon id="Path" fill="url(#linearGradient-3)" transform="translate(204.164737, 95.164737) rotate(45.000000) translate(-204.164737, -95.164737) " points="187.664737 18.093669 220.664737 18.093669 197.664737 172.235804"></polygon>
                            <polygon id="Path" fill="url(#linearGradient-3)" transform="translate(218.823310, 117.525719) rotate(65.000000) translate(-218.823310, -117.525719) " points="202.32331 40.4546513 235.32331 40.4546513 212.32331 194.596787"></polygon>
                            <polygon id="Path" fill="url(#linearGradient-3)" transform="translate(184.525719, 76.823310) rotate(25.000000) translate(-184.525719, -76.823310) " points="168.025719 -0.2477576 201.025719 -0.2477576 178.025719 153.894378"></polygon>
                            <polygon id="Path" fill="url(#linearGradient-3)" transform="translate(90.164737, 192.164737) rotate(-135.000000) translate(-90.164737, -192.164737) " points="73.6647366 115.09367 106.664737 115.09367 83.6647366 269.235805"></polygon>
                            <polygon id="Path" fill="url(#linearGradient-3)" transform="translate(109.525719, 209.823310) rotate(-155.000000) translate(-109.525719, -209.823310) " points="93.025719 132.752242 126.025719 132.752242 103.025719 286.894378"></polygon>
                            <polygon id="Path" fill="url(#linearGradient-3)" transform="translate(76.823310, 169.525719) rotate(-115.000000) translate(-76.823310, -169.525719) " points="60.3233101 92.4546509 93.3233101 92.4546509 70.3233101 246.596787"></polygon>
                            <polygon id="Path" fill="url(#linearGradient-3)" transform="translate(140.500000, 214.000000) rotate(-180.000000) translate(-140.500000, -214.000000) " points="124 144 157 144 134 284"></polygon>
                        </g>
                    </g>
                </g>
            </g>
        </g>
    </g>
</svg>